<svg id="visual" viewBox="0 0 900 400" width="900" height="400" xmlns="http://www.w3.org/2000/svg" xmlns:xlink="http://www.w3.org/1999/xlink" version="1.1"><rect x="0" y="0" width="900" height="400" fill="#dfc596"></rect><path d="M0 265L21.5 262.5C43 260 86 255 128.8 257C171.7 259 214.3 268 257.2 265.3C300 262.7 343 248.3 385.8 248.5C428.7 248.7 471.3 263.3 514.2 264.5C557 265.7 600 253.3 642.8 254C685.7 254.7 728.3 268.3 771.2 269.8C814 271.3 857 260.7 878.5 255.3L900 250L900 401L878.5 401C857 401 814 401 771.2 401C728.3 401 685.7 401 642.8 401C600 401 557 401 514.2 401C471.3 401 428.7 401 385.8 401C343 401 300 401 257.2 401C214.3 401 171.7 401 128.8 401C86 401 43 401 21.5 401L0 401Z" fill="#af5cba"></path><path d="M0 270L21.5 270.2C43 270.3 86 270.7 128.8 271C171.7 271.3 214.3 271.7 257.2 275C300 278.3 343 284.7 385.8 290.7C428.7 296.7 471.3 302.3 514.2 298.8C557 295.3 600 282.7 642.8 280.7C685.7 278.7 728.3 287.3 771.2 287.7C814 288 857 280 878.5 276L900 272L900 401L878.5 401C857 401 814 401 771.2 401C728.3 401 685.7 401 642.8 401C600 401 557 401 514.2 401C471.3 401 428.7 401 385.8 401C343 401 300 401 257.2 401C214.3 401 171.7 401 128.8 401C86 401 43 401 21.5 401L0 401Z" fill="#a656bf"></path><path d="M0 311L21.5 312C43 313 86 315 128.8 315.3C171.7 315.7 214.3 314.3 257.2 315C300 315.7 343 318.3 385.8 315.2C428.7 312 471.3 303 514.2 306.2C557 309.3 600 324.7 642.8 330.2C685.7 335.7 728.3 331.3 771.2 323.8C814 316.3 857 305.7 878.5 300.3L900 295L900 401L878.5 401C857 401 814 401 771.2 401C728.3 401 685.7 401 642.8 401C600 401 557 401 514.2 401C471.3 401 428.7 401 385.8 401C343 401 300 401 257.2 401C214.3 401 171.7 401 128.8 401C86 401 43 401 21.5 401L0 401Z" fill="#9c51c5"></path><path d="M0 337L21.5 340.7C43 344.3 86 351.7 128.8 351.3C171.7 351 214.3 343 257.2 342.2C300 341.3 343 347.7 385.8 348.7C428.7 349.7 471.3 345.3 514.2 343C557 340.7 600 340.3 642.8 340C685.7 339.7 728.3 339.3 771.2 338.2C814 337 857 335 878.5 334L900 333L900 401L878.5 401C857 401 814 401 771.2 401C728.3 401 685.7 401 642.8 401C600 401 557 401 514.2 401C471.3 401 428.7 401 385.8 401C343 401 300 401 257.2 401C214.3 401 171.7 401 128.8 401C86 401 43 401 21.5 401L0 401Z" fill="#904ccb"></path><path d="M0 353L21.5 356.7C43 360.3 86 367.7 128.8 371.8C171.7 376 214.3 377 257.2 375.5C300 374 343 370 385.8 370.5C428.7 371 471.3 376 514.2 376.8C557 377.7 600 374.3 642.8 370.8C685.7 367.3 728.3 363.7 771.2 365C814 366.3 857 372.7 878.5 375.8L900 379L900 401L878.5 401C857 401 814 401 771.2 401C728.3 401 685.7 401 642.8 401C600 401 557 401 514.2 401C471.3 401 428.7 401 385.8 401C343 401 300 401 257.2 401C214.3 401 171.7 401 128.8 401C86 401 43 401 21.5 401L0 401Z" fill="#8049d2"></path></svg>